#Comment line ignore any data following # character 
#Hierarchical Translation and Rotation (.htr) file 
[Header]	
#Header keywords are followed by a single value 
FileType HTR		#Single word string
DataType HTRS		#Translation followed by rotation and scale data
FileVersion 1		#integer
NumSegments 84		#integer
NumFrames 2		#integer
DataFrameRate 30		#integer, data frame rate in this file
EulerRotationOrder ZYX
CalibrationUnits mm
RotationUnits Degrees
GlobalAxisofGravity Y
BoneLengthAxis Y
ScaleFactor 1.00
[SegmentNames&Hierarchy]
#CHILD	PARENT
MASTER GLOBAL
root MASTER
chest root
L_mid_tent01 root
R_mid_tent01 root
spine01 root
Bip01_Neck chest
L_humerus chest
R_humerus chest
weapon_bone chest
Bip01_Head Bip01_Neck
eye_left_bone Bip01_Head
eye_right_bone Bip01_Head
L_forearm L_humerus
L_front_hand L_forearm
L_weapon_bone L_forearm
L_front_hand01_01 L_front_hand
L_front_hand02_01 L_front_hand
L_front_hand03_01 L_front_hand
L_front_hand01_02 L_front_hand01_01
L_front_hand02_02 L_front_hand02_01
L_front_hand03_02 L_front_hand03_01
R_forearm R_humerus
R_front_hand R_forearm
R_weapon_bone R_forearm
R_front_hand01_01 R_front_hand
R_front_hand02_01 R_front_hand
R_front_hand03_01 R_front_hand
R_front_hand01_02 R_front_hand01_01
R_front_hand02_02 R_front_hand02_01
R_front_hand03_02 R_front_hand03_01
null_rope01_connect L_mid_tent01
Rope1_Seg01 null_rope01_connect
Rope1_Seg02 Rope1_Seg01
Rope1_Seg03 Rope1_Seg02
Rope1_Seg04 Rope1_Seg03
Rope1_Seg05 Rope1_Seg04
Rope1_Seg06 Rope1_Seg05
Rope1_Seg07 Rope1_Seg06
Rope1_Seg09 Rope1_Seg07
L_mid_hand01 Rope1_Seg09
L_mid_hand02 Rope1_Seg09
L_mid_hand03 Rope1_Seg09
null_rope02_connect R_mid_tent01
Rope2_Seg01 null_rope02_connect
Rope2_Seg02 Rope2_Seg01
Rope2_Seg03 Rope2_Seg02
Rope2_Seg04 Rope2_Seg03
Rope2_Seg05 Rope2_Seg04
Rope2_Seg06 Rope2_Seg05
Rope2_Seg07 Rope2_Seg06
Rope2_Seg09 Rope2_Seg07
R_mid_hand01 Rope2_Seg09
R_mid_hand02 Rope2_Seg09
R_mid_hand03 Rope2_Seg09
spine02 spine01
spine03 spine02
pelvis spine03
null_rope03_connect pelvis
null_rope04_connect pelvis
Rope3_Seg01 null_rope03_connect
Rope3_Seg02 Rope3_Seg01
Rope3_Seg03 Rope3_Seg02
Rope3_Seg04 Rope3_Seg03
Rope3_Seg05 Rope3_Seg04
Rope3_Seg06 Rope3_Seg05
Rope3_Seg07 Rope3_Seg06
Rope3_Seg08 Rope3_Seg07
Rope3_Seg09 Rope3_Seg08
R_rear_hand01 Rope3_Seg09
R_rear_hand02 Rope3_Seg09
R_rear_hand03 Rope3_Seg09
Rope4_Seg01 null_rope04_connect
Rope4_Seg02 Rope4_Seg01
Rope4_Seg03 Rope4_Seg02
Rope4_Seg04 Rope4_Seg03
Rope4_Seg05 Rope4_Seg04
Rope4_Seg06 Rope4_Seg05
Rope4_Seg07 Rope4_Seg06
Rope4_Seg08 Rope4_Seg07
Rope4_Seg09 Rope4_Seg08
L_rear_hand01 Rope4_Seg09
L_rear_hand02 Rope4_Seg09
L_rear_hand03 Rope4_Seg09
[BasePosition]
#SegmentName Tx, Ty, Tz, Rx, Ry, Rz, BoneLength
MASTER 0.000000 0.000000 0.000000 -90.000000 0.000000 0.000000 10.000000 
root 0.000000 0.000000 0.000000 0.000000 0.000000 0.000000 10.000000 
chest 0.000000 0.000000 0.000000 0.000000 0.000000 0.000000 10.000000 
L_mid_tent01 0.000000 0.000000 0.000000 0.000000 0.000000 0.000000 10.000000 
R_mid_tent01 0.000000 0.000000 0.000000 0.000000 0.000000 0.000000 10.000000 
spine01 0.000000 0.000000 0.000000 0.000000 0.000000 0.000000 10.000000 
Bip01_Neck 0.000000 0.000000 0.000000 0.000000 0.000000 0.000000 10.000000 
L_humerus 0.000000 0.000000 0.000000 0.000000 0.000000 0.000000 10.000000 
R_humerus 0.000000 0.000000 0.000000 0.000000 0.000000 0.000000 10.000000 
weapon_bone 0.000000 0.000000 0.000000 0.000000 0.000000 0.000000 10.000000 
Bip01_Head 0.000000 0.000000 0.000000 0.000000 0.000000 0.000000 10.000000 
eye_left_bone 0.000000 0.000000 0.000000 0.000000 0.000000 0.000000 10.000000 
eye_right_bone 0.000000 0.000000 0.000000 0.000000 0.000000 0.000000 10.000000 
L_forearm 0.000000 0.000000 0.000000 0.000000 0.000000 0.000000 10.000000 
L_front_hand 0.000000 0.000000 0.000000 0.000000 0.000000 0.000000 10.000000 
L_weapon_bone 0.000000 0.000000 0.000000 0.000000 0.000000 0.000000 10.000000 
L_front_hand01_01 0.000000 0.000000 0.000000 0.000000 0.000000 0.000000 10.000000 
L_front_hand02_01 0.000000 0.000000 0.000000 0.000000 0.000000 0.000000 10.000000 
L_front_hand03_01 0.000000 0.000000 0.000000 0.000000 0.000000 0.000000 10.000000 
L_front_hand01_02 0.000000 0.000000 0.000000 0.000000 0.000000 0.000000 10.000000 
L_front_hand02_02 0.000000 0.000000 0.000000 0.000000 0.000000 0.000000 10.000000 
L_front_hand03_02 0.000000 0.000000 0.000000 0.000000 0.000000 0.000000 10.000000 
R_forearm 0.000000 0.000000 0.000000 0.000000 0.000000 0.000000 10.000000 
R_front_hand 0.000000 0.000000 0.000000 0.000000 0.000000 0.000000 10.000000 
R_weapon_bone 0.000000 0.000000 0.000000 0.000000 0.000000 0.000000 10.000000 
R_front_hand01_01 0.000000 0.000000 0.000000 0.000000 0.000000 0.000000 10.000000 
R_front_hand02_01 0.000000 0.000000 0.000000 0.000000 0.000000 0.000000 10.000000 
R_front_hand03_01 0.000000 0.000000 0.000000 0.000000 0.000000 0.000000 10.000000 
R_front_hand01_02 0.000000 0.000000 0.000000 0.000000 0.000000 0.000000 10.000000 
R_front_hand02_02 0.000000 0.000000 0.000000 0.000000 0.000000 0.000000 10.000000 
R_front_hand03_02 0.000000 0.000000 0.000000 0.000000 0.000000 0.000000 10.000000 
null_rope01_connect 0.000000 0.000000 0.000000 0.000000 0.000000 0.000000 10.000000 
Rope1_Seg01 0.000000 0.000000 0.000000 0.000000 0.000000 0.000000 10.000000 
Rope1_Seg02 0.000000 0.000000 0.000000 0.000000 0.000000 0.000000 10.000000 
Rope1_Seg03 0.000000 0.000000 0.000000 0.000000 0.000000 0.000000 10.000000 
Rope1_Seg04 0.000000 0.000000 0.000000 0.000000 0.000000 0.000000 10.000000 
Rope1_Seg05 0.000000 0.000000 0.000000 0.000000 0.000000 0.000000 10.000000 
Rope1_Seg06 0.000000 0.000000 0.000000 0.000000 0.000000 0.000000 10.000000 
Rope1_Seg07 0.000000 0.000000 0.000000 0.000000 0.000000 0.000000 10.000000 
Rope1_Seg09 0.000000 0.000000 0.000000 0.000000 0.000000 0.000000 10.000000 
L_mid_hand01 0.000000 0.000000 0.000000 0.000000 0.000000 0.000000 10.000000 
L_mid_hand02 0.000000 0.000000 0.000000 0.000000 0.000000 0.000000 10.000000 
L_mid_hand03 0.000000 0.000000 0.000000 0.000000 0.000000 0.000000 10.000000 
null_rope02_connect 0.000000 0.000000 0.000000 0.000000 0.000000 0.000000 10.000000 
Rope2_Seg01 0.000000 0.000000 0.000000 0.000000 0.000000 0.000000 10.000000 
Rope2_Seg02 0.000000 0.000000 0.000000 0.000000 0.000000 0.000000 10.000000 
Rope2_Seg03 0.000000 0.000000 0.000000 0.000000 0.000000 0.000000 10.000000 
Rope2_Seg04 0.000000 0.000000 0.000000 0.000000 0.000000 0.000000 10.000000 
Rope2_Seg05 0.000000 0.000000 0.000000 0.000000 0.000000 0.000000 10.000000 
Rope2_Seg06 0.000000 0.000000 0.000000 0.000000 0.000000 0.000000 10.000000 
Rope2_Seg07 0.000000 0.000000 0.000000 0.000000 0.000000 0.000000 10.000000 
Rope2_Seg09 0.000000 0.000000 0.000000 0.000000 0.000000 0.000000 10.000000 
R_mid_hand01 0.000000 0.000000 0.000000 0.000000 0.000000 0.000000 10.000000 
R_mid_hand02 0.000000 0.000000 0.000000 0.000000 0.000000 0.000000 10.000000 
R_mid_hand03 0.000000 0.000000 0.000000 0.000000 0.000000 0.000000 10.000000 
spine02 0.000000 0.000000 0.000000 0.000000 0.000000 0.000000 10.000000 
spine03 0.000000 0.000000 0.000000 0.000000 0.000000 0.000000 10.000000 
pelvis 0.000000 0.000000 0.000000 0.000000 0.000000 0.000000 10.000000 
null_rope03_connect 0.000000 0.000000 0.000000 0.000000 0.000000 0.000000 10.000000 
null_rope04_connect 0.000000 0.000000 0.000000 0.000000 0.000000 0.000000 10.000000 
Rope3_Seg01 0.000000 0.000000 0.000000 0.000000 0.000000 0.000000 10.000000 
Rope3_Seg02 0.000000 0.000000 0.000000 0.000000 0.000000 0.000000 10.000000 
Rope3_Seg03 0.000000 0.000000 0.000000 0.000000 0.000000 0.000000 10.000000 
Rope3_Seg04 0.000000 0.000000 0.000000 0.000000 0.000000 0.000000 10.000000 
Rope3_Seg05 0.000000 0.000000 0.000000 0.000000 0.000000 0.000000 10.000000 
Rope3_Seg06 0.000000 0.000000 0.000000 0.000000 0.000000 0.000000 10.000000 
Rope3_Seg07 0.000000 0.000000 0.000000 0.000000 0.000000 0.000000 10.000000 
Rope3_Seg08 0.000000 0.000000 0.000000 0.000000 0.000000 0.000000 10.000000 
Rope3_Seg09 0.000000 0.000000 0.000000 0.000000 0.000000 0.000000 10.000000 
R_rear_hand01 0.000000 0.000000 0.000000 0.000000 0.000000 0.000000 10.000000 
R_rear_hand02 0.000000 0.000000 0.000000 0.000000 0.000000 0.000000 10.000000 
R_rear_hand03 0.000000 0.000000 0.000000 0.000000 0.000000 0.000000 10.000000 
Rope4_Seg01 0.000000 0.000000 0.000000 0.000000 0.000000 0.000000 10.000000 
Rope4_Seg02 0.000000 0.000000 0.000000 0.000000 0.000000 0.000000 10.000000 
Rope4_Seg03 0.000000 0.000000 0.000000 0.000000 0.000000 0.000000 10.000000 
Rope4_Seg04 0.000000 0.000000 0.000000 0.000000 0.000000 0.000000 10.000000 
Rope4_Seg05 0.000000 0.000000 0.000000 0.000000 0.000000 0.000000 10.000000 
Rope4_Seg06 0.000000 0.000000 0.000000 0.000000 0.000000 0.000000 10.000000 
Rope4_Seg07 0.000000 0.000000 0.000000 0.000000 0.000000 0.000000 10.000000 
Rope4_Seg08 0.000000 0.000000 0.000000 0.000000 0.000000 0.000000 10.000000 
Rope4_Seg09 0.000000 0.000000 0.000000 0.000000 0.000000 0.000000 10.000000 
L_rear_hand01 0.000000 0.000000 0.000000 0.000000 0.000000 0.000000 10.000000 
L_rear_hand02 0.000000 0.000000 0.000000 0.000000 0.000000 0.000000 10.000000 
L_rear_hand03 0.000000 0.000000 0.000000 0.000000 0.000000 0.000000 10.000000 
#Beginning of Data. Separated by tabs
#Fr	Tx	Ty	Tz	Rx	Ry	Rz	SF
[MASTER]
104 -0.000679 4527.397949 0.000000 0.001660 0.001660 0.001660 4527.397949
105 -0.000686 4569.886230 0.000000 0.001660 0.001660 0.001660 4569.886230
[root]
104 1032.574829 72.934853 1438.008667 -80.932076 -18.054440 -89.294556 1771.834961
105 1081.705444 64.014076 1453.299927 -78.540108 -17.707947 -90.451630 1812.805908
[chest]
104 -84.512650 -34.090519 0.000000 -3.014028 -4.223218 175.404968 91.129311
105 -84.512650 -34.090519 0.000000 -2.940289 -4.353738 175.111420 91.129311
[L_mid_tent01]
104 27.403870 22.117676 -250.588593 -14.491649 21.871115 46.190411 253.050995
105 27.395716 22.122353 -250.536179 -11.300180 16.240936 48.219574 252.998627
[R_mid_tent01]
104 23.228794 24.509907 226.238495 174.578934 -55.913322 78.859406 228.744751
105 23.228794 24.509907 226.238495 177.933868 -59.584652 75.444290 228.744751
[spine01]
104 -0.361383 -0.195265 0.000000 0.001869 0.001420 15.534141 0.410763
105 -0.361383 -0.195265 0.000000 0.001869 0.001420 15.534141 0.410763
[Bip01_Neck]
104 165.484543 71.581718 0.000119 175.896118 1.177290 24.871183 180.302734
105 165.484543 71.581718 0.000119 175.896118 1.177290 24.871183 180.302734
[L_humerus]
104 -13.983130 -135.272980 -120.471481 175.500610 55.921959 -64.828316 181.680161
105 -13.983130 -135.272980 -120.471481 175.500626 55.921959 -64.828316 181.680161
[R_humerus]
104 -13.983309 -135.273102 125.287651 -178.898193 -46.892139 -62.295097 184.909012
105 -13.983309 -135.273102 125.287651 -178.898193 -46.892124 -62.295071 184.909012
[weapon_bone]
104 235.964890 -300.705902 0.000000 0.000000 -89.951546 -128.212341 382.234833
105 235.964890 -300.705902 0.000000 0.000000 -89.951546 -128.212341 382.234833
[Bip01_Head]
104 184.171127 179.165268 16.194466 20.202593 21.982723 -58.603249 257.451874
105 184.430527 180.005066 16.064816 21.701426 22.341410 -57.451756 258.214111
[eye_left_bone]
104 -24.626970 125.451866 -64.772606 0.000000 -90.000000 -99.840431 143.318359
105 -24.626970 125.451866 -64.772606 0.000000 -90.000000 -99.840431 143.318359
[eye_right_bone]
104 -24.626970 125.451866 64.327362 0.000000 -89.960434 80.159386 143.117676
105 -24.626970 125.451866 64.327362 0.000000 -89.960434 80.159386 143.117676
[L_forearm]
104 322.776093 0.000000 -0.000119 0.000640 0.002258 -58.348751 322.776093
105 322.776093 0.000000 -0.000119 0.000640 0.002258 -58.348751 322.776093
[L_front_hand]
104 241.149185 -0.042021 -3.300071 -178.667953 -1.835447 -27.422350 241.171753
105 241.149185 -0.042021 -3.300071 -178.667953 -1.835447 -27.422342 241.171753
[L_weapon_bone]
104 156.183838 0.000000 0.000000 0.000014 0.000007 0.000001 156.183838
105 156.183838 0.000000 0.000000 0.000014 0.000007 0.000001 156.183838
[L_front_hand01_01]
104 86.095154 20.947098 -0.655860 -0.366594 -0.477154 75.385574 88.609184
105 86.095154 20.947098 -0.655860 -0.366594 -0.477154 75.385574 88.609184
[L_front_hand02_01]
104 86.935165 -11.437475 24.513514 154.403519 -59.888931 -61.371990 91.046425
105 86.935165 -11.437475 24.513514 154.403519 -59.888931 -61.371990 91.046425
[L_front_hand03_01]
104 86.637497 -14.123976 -20.424902 -153.913849 58.118122 -62.702866 90.126129
105 86.637497 -14.123976 -20.424902 -153.913879 58.118130 -62.702892 90.126129
[L_front_hand01_02]
104 71.020905 -0.000179 0.000030 0.000334 -0.002323 -106.379684 71.020905
105 71.020905 -0.000179 0.000030 0.000334 -0.002323 -106.379684 71.020905
[L_front_hand02_02]
104 71.020927 -0.000119 0.000060 0.000334 -0.002323 -106.379684 71.020927
105 71.020927 -0.000119 0.000060 0.000334 -0.002323 -106.379684 71.020927
[L_front_hand03_02]
104 71.020905 -0.000060 0.000060 0.000334 -0.002323 -106.379684 71.020905
105 71.020905 -0.000060 0.000060 0.000334 -0.002323 -106.379684 71.020905
[R_forearm]
104 322.776428 -0.000060 0.000030 0.178801 -0.113338 -58.530384 322.776428
105 322.776428 -0.000060 0.000030 0.178801 -0.113338 -58.530384 322.776428
[R_front_hand]
104 238.847015 -0.006795 2.210259 -1.531694 0.790216 -51.443054 238.857239
105 238.847015 -0.006795 2.210259 -1.531694 0.790216 -51.443054 238.857239
[R_weapon_bone]
104 155.664093 0.002503 -0.000030 0.003487 0.001180 -90.988930 155.664078
105 155.664093 0.002503 -0.000030 0.003487 0.001180 -90.988930 155.664078
[R_front_hand01_01]
104 87.624611 14.231146 22.918642 -154.633499 -59.950619 61.746044 91.683487
105 87.624611 14.231146 22.918642 -154.633484 -59.950619 61.746037 91.683487
[R_front_hand02_01]
104 89.356956 14.367283 -19.491137 154.602661 58.302849 63.744389 92.579636
105 89.356956 14.367283 -19.491137 154.602661 58.302849 63.744389 92.579636
[R_front_hand03_01]
104 87.286232 -22.307278 -0.143439 0.162155 -0.423168 -75.767921 90.091743
105 87.286232 -22.307278 -0.143439 0.162155 -0.423168 -75.767921 90.091743
[R_front_hand01_02]
104 71.020905 0.000060 0.000119 0.002323 -0.000334 106.381714 71.020905
105 71.020905 0.000060 0.000119 0.002323 -0.000334 106.381714 71.020905
[R_front_hand02_02]
104 71.020844 -0.000030 -0.000119 0.002323 -0.000334 106.381714 71.020836
105 71.020844 -0.000030 -0.000119 0.002323 -0.000334 106.381714 71.020836
[R_front_hand03_02]
104 71.020905 0.000000 0.000030 0.002323 -0.000334 106.381714 71.020905
105 71.020905 0.000000 0.000030 0.002323 -0.000334 106.381714 71.020905
[null_rope01_connect]
104 328.732483 0.000000 -0.000238 -150.376617 -73.221703 -150.807770 328.732483
105 328.732483 0.000000 -0.000238 -145.280396 -81.354614 -157.085739 328.732483
[Rope1_Seg01]
104 7.731000 -2.037075 -0.301188 4.066142 -46.468555 -70.476471 8.000546
105 7.727242 -1.622791 0.700256 0.694796 -50.049591 -65.922668 7.926795
[Rope1_Seg02]
104 139.999863 -0.000179 0.000000 -1.668614 11.739174 -3.039414 139.999863
105 139.999863 -0.000179 0.000000 -1.650830 15.667700 -2.102888 139.999863
[Rope1_Seg03]
104 139.999924 0.000060 -0.000060 -23.032829 40.351669 -11.501429 139.999924
105 139.999924 0.000060 -0.000060 -26.026121 48.002529 -7.436533 139.999924
[Rope1_Seg04]
104 139.999924 -0.000060 -0.000119 -59.889252 46.690018 4.765820 139.999924
105 139.999924 -0.000060 -0.000119 -37.075047 35.062222 10.550249 139.999924
[Rope1_Seg05]
104 139.999832 0.000119 -0.000060 -13.495370 5.184940 13.893571 139.999832
105 139.999832 0.000119 -0.000060 -13.052769 7.274212 13.003421 139.999832
[Rope1_Seg06]
104 139.999954 0.000119 -0.000060 -11.744557 1.468092 28.719692 139.999954
105 139.999954 0.000119 -0.000060 -12.615237 6.101692 30.896685 139.999954
[Rope1_Seg07]
104 139.999985 0.000060 0.000000 -3.918119 -6.189875 41.739204 139.999985
105 139.999985 0.000060 0.000000 -3.051537 -1.241147 32.334473 139.999985
[Rope1_Seg09]
104 121.602913 0.000119 -0.000089 -89.793175 -1.359789 0.847147 121.602913
105 121.602913 0.000119 -0.000089 -89.793175 -1.359789 0.847147 121.602913
[L_mid_hand01]
104 103.859421 1.038730 8.195221 116.294914 -23.111713 -31.758034 104.187431
105 103.859421 1.038730 8.195221 116.294914 -23.111713 -31.758034 104.187431
[L_mid_hand02]
104 105.572853 -4.139662 -10.864139 -144.219833 17.447468 -35.360519 106.211075
105 105.572853 -4.139662 -10.864139 -144.219833 17.447468 -35.360519 106.211075
[L_mid_hand03]
104 104.641464 17.579376 -3.913581 -17.830780 17.153103 31.982925 106.179977
105 104.641464 17.579376 -3.913581 -17.830780 17.153103 31.982925 106.179977
[null_rope02_connect]
104 328.732849 0.000179 -0.000119 -145.497665 24.839729 1.262682 328.732849
105 328.732849 0.000179 -0.000119 -146.965469 19.633156 -2.711337 328.732849
[Rope2_Seg01]
104 0.000024 0.000467 0.000105 -32.967831 -5.945024 115.243828 0.000479
105 0.000023 0.000470 0.000106 9.311551 19.131758 127.532951 0.000482
[Rope2_Seg02]
104 139.999741 -0.000060 -0.000119 4.210816 7.259213 -0.459655 139.999756
105 139.999741 -0.000060 -0.000119 -2.111653 1.982231 -2.899540 139.999756
[Rope2_Seg03]
104 140.000107 0.000030 0.000000 4.640081 17.775375 -2.528375 140.000107
105 140.000107 0.000030 0.000000 -3.333254 4.044038 -5.484652 140.000107
[Rope2_Seg04]
104 139.999802 0.000000 -0.000060 -7.202717 48.553116 -19.688492 139.999802
105 139.999802 0.000000 -0.000060 -8.481721 14.654430 -19.256294 139.999802
[Rope2_Seg05]
104 139.999985 -0.000060 0.000119 -6.376695 31.856058 -7.367919 139.999985
105 139.999985 -0.000060 0.000119 -16.475292 38.328182 -63.139019 139.999985
[Rope2_Seg06]
104 139.999893 -0.000030 -0.000119 -25.393587 26.130289 7.241310 139.999893
105 139.999893 -0.000030 -0.000119 14.206503 19.854641 -18.640823 139.999893
[Rope2_Seg07]
104 139.999893 0.000060 -0.000060 -34.875114 15.614330 12.063758 139.999893
105 139.999893 0.000060 -0.000060 120.478470 21.873440 -20.850521 139.999893
[Rope2_Seg09]
104 121.338966 0.000089 -0.000060 33.793236 -1.359788 -0.847141 121.338966
105 121.338966 0.000089 -0.000060 33.793236 -1.359788 -0.847141 121.338966
[R_mid_hand01]
104 104.680779 11.144459 -10.335981 -41.523792 25.424656 28.595957 105.778534
105 104.680779 11.144459 -10.335981 -41.523792 25.424656 28.595957 105.778534
[R_mid_hand02]
104 104.070427 2.443552 8.231699 72.847389 -32.746803 10.013901 104.424065
105 104.070427 2.443552 8.231699 72.847389 -32.746803 10.013901 104.424065
[R_mid_hand03]
104 106.028137 -11.221827 -5.996406 -167.901306 10.259192 -37.009720 106.788818
105 106.028137 -11.221827 -5.996406 -167.901306 10.259192 -37.009720 106.788818
[spine02]
104 129.756927 0.001550 0.000119 -0.245322 -4.052060 -4.355547 129.756927
105 129.756927 0.001550 0.000119 -0.245322 -4.052059 -4.355546 129.756927
[spine03]
104 78.614273 0.087280 -4.898825 0.369658 4.260732 -4.885719 78.766808
105 78.614281 0.087280 -4.898825 0.369658 4.260732 -4.885719 78.766808
[pelvis]
104 169.435242 0.051022 0.000000 -0.010007 -0.191417 -1.897554 169.435257
105 169.435242 0.051022 0.000000 -0.010007 -0.191417 -1.897554 169.435257
[null_rope03_connect]
104 -1.257226 -2.466202 137.391083 21.588963 -80.240875 82.011711 137.418976
105 -1.257226 -2.466202 137.391083 15.365378 -78.215416 87.986237 137.418976
[null_rope04_connect]
104 -1.259640 -2.480268 -137.844437 21.588963 -80.240875 82.011711 137.872513
105 -1.259640 -2.480268 -137.844437 15.365378 -78.215416 87.986237 137.872513
[Rope3_Seg01]
104 -0.000003 0.000419 -0.000210 -95.087166 51.810070 -26.430017 0.000469
105 -0.000003 0.000423 -0.000212 -95.046158 53.850231 -26.713219 0.000473
[Rope3_Seg02]
104 139.999924 -0.000119 0.000060 -0.987989 1.429284 -4.339673 139.999924
105 139.999924 -0.000119 0.000060 -0.888088 1.572376 -4.240579 139.999924
[Rope3_Seg03]
104 139.999924 -0.000119 0.000119 -2.232208 2.493255 -7.201132 139.999924
105 139.999924 -0.000119 0.000119 -2.057221 2.743781 -7.102825 139.999924
[Rope3_Seg04]
104 139.999924 0.000119 0.000000 -6.836570 5.425973 -14.145059 139.999924
105 139.999924 0.000119 0.000000 -6.541273 5.995711 -14.264953 139.999924
[Rope3_Seg05]
104 139.999924 -0.000238 0.000060 -33.205585 17.243071 -35.625057 139.999924
105 139.999924 -0.000238 0.000060 -32.681950 18.723568 -36.757702 139.999924
[Rope3_Seg06]
104 139.999893 -0.000119 -0.000060 -25.191458 22.560696 -17.116299 139.999893
105 139.999893 -0.000119 -0.000060 -23.701151 22.902237 -17.248194 139.999893
[Rope3_Seg07]
104 139.999771 0.000060 -0.000119 -5.753023 8.342968 -3.437357 139.999771
105 139.999771 0.000060 -0.000119 -5.684873 8.808460 -3.824106 139.999771
[Rope3_Seg08]
104 139.999985 -0.000060 0.000000 -5.210782 9.430784 -2.514922 139.999985
105 139.999985 -0.000060 0.000000 -5.160384 9.966266 -2.913601 139.999985
[Rope3_Seg09]
104 90.185997 -0.000179 -0.000060 89.793228 -1.359877 -0.847183 90.185997
105 90.185997 -0.000179 -0.000060 89.793228 -1.359877 -0.847183 90.185997
[R_rear_hand01]
104 103.366196 -6.073594 -10.757982 -158.627975 33.644119 -23.327248 104.101845
105 103.366196 -6.073594 -10.757982 -158.627975 33.644127 -23.327253 104.101845
[R_rear_hand02]
104 100.509819 12.039542 -7.992327 -36.327797 26.496241 23.332451 101.543350
105 100.509819 12.039542 -7.992327 -36.327797 26.496241 23.332451 101.543350
[R_rear_hand03]
104 101.539970 5.215704 5.435467 73.054977 -27.152536 27.950705 101.819031
105 101.539970 5.215704 5.435467 73.054977 -27.152536 27.950705 101.819031
[Rope4_Seg01]
104 -0.000025 0.000012 0.000048 17.751431 8.058395 -167.826157 0.000055
105 -0.000025 0.000012 0.000047 11.425457 12.832445 -169.369629 0.000054
[Rope4_Seg02]
104 139.999985 0.000060 0.000119 14.919500 -13.640282 0.442722 139.999985
105 139.999985 0.000060 0.000119 12.053731 -13.616469 -0.385878 139.999985
[Rope4_Seg03]
104 139.999924 0.000000 -0.000238 67.247765 -22.854015 7.402367 139.999924
105 139.999924 0.000000 -0.000238 65.468719 -23.795773 4.732816 139.999924
[Rope4_Seg04]
104 139.999985 0.000000 0.000119 37.627979 -0.210386 26.860598 139.999985
105 139.999985 0.000000 0.000119 44.935856 -4.257731 27.052952 139.999985
[Rope4_Seg05]
104 139.999802 -0.000060 -0.000119 9.197842 8.578380 14.643930 139.999802
105 139.999802 -0.000060 -0.000119 9.941119 8.530773 14.733125 139.999802
[Rope4_Seg06]
104 139.999924 0.000000 0.000060 9.379461 12.705585 23.524691 139.999924
105 139.999924 0.000000 0.000060 9.995398 13.076103 23.568653 139.999924
[Rope4_Seg07]
104 139.999802 0.000000 0.000000 4.186971 17.137163 25.132280 139.999802
105 139.999802 0.000000 0.000000 4.791651 17.965691 25.286673 139.999802
[Rope4_Seg08]
104 139.999924 0.000000 0.000119 -2.687711 8.104328 10.509407 139.999924
105 139.999924 0.000000 0.000119 -2.445467 8.461539 10.381333 139.999924
[Rope4_Seg09]
104 90.185791 0.000060 0.000060 -135.617828 2.228885 0.850567 90.185791
105 90.185791 0.000060 0.000060 -135.617828 2.228885 0.850567 90.185791
[L_rear_hand01]
104 101.696655 -8.392275 -7.654577 -33.685818 -15.212530 149.017090 102.329041
105 101.696655 -8.392275 -7.654577 -33.685818 -15.212530 149.017090 102.329041
[L_rear_hand02]
104 102.726799 -1.568258 5.773216 83.407906 30.330435 172.796509 102.900848
105 102.726799 -1.568258 5.773216 83.407906 30.330435 172.796509 102.900848
[L_rear_hand03]
104 104.552910 9.721220 -10.420293 -160.801239 -15.606593 -150.211823 105.519653
105 104.552910 9.721220 -10.420293 -160.801239 -15.606593 -150.211823 105.519653
